<svg width="24" height="24" viewBox="0 0 24 24" fill="none" xmlns="http://www.w3.org/2000/svg">
    <path fill-rule="evenodd" clip-rule="evenodd"
          d="M20.2002 9.8L20.2002 19C20.2002 19.6627 19.6629 20.2 19.0002 20.2L5.00018 20.2C4.33744 20.2 3.80018 19.6627 3.80018 19L3.80018 9.8L20.2002 9.8ZM20.2002 8L20.2002 5C20.2002 4.33726 19.6629 3.8 19.0002 3.8L5.00018 3.8C4.33744 3.8 3.80018 4.33726 3.80018 5L3.80018 8L20.2002 8ZM19.0002 2C20.657 2 22.0002 3.34315 22.0002 5L22.0002 19C22.0002 20.6569 20.657 22 19.0002 22L5.00018 22C3.34333 22 2.00018 20.6569 2.00018 19L2.00018 5C2.00018 3.34314 3.34333 2 5.00018 2L19.0002 2Z"
          fill="black"/>
</svg>
